cover
 
http://img28.imageshack.us/img28/8416/13hoursposter.jpg
Genre:Action | Horror
Language:English
IMDb:http://www.imdb.com/title/tt1411232/
Source:DVD

General
Complete name :13 HRS 2010 DvDRip H264 Feel-Free
Format : MPEG-4
Format profile : Base Media / Version 2
Codec ID : mp42
File size : 765 MiB
Duration : 1h 21mn
Overall bit rate : 1 315 Kbps
Video #1
Codec ID : avc1
Codec ID/Info : Advanced Video Coding
Duration : 1h 21mn
Bit rate mode : Variable
Bit rate : 834 Kbps
Width : 720 pixels
Height : 384 pixels
Display aspect ratio : 1.875
Frame rate mode : Constant
Frame rate : 23.976 fps
Resolution : 24 bits
Colorimetry : 4:2:0
Scan type : Progressive
Bits/(Pixel*Frame) : 0.126
Stream size : 485 MiB (63%)
Audio #2
ID : 2
Format : AAC
Format/Info : Advanced Audio Codec
Format version : Version 4
Format profile : LC
Format settings, SBR : No
Codec ID : 40
Duration : 1h 21mn
Bit rate mode : Constant
Bit rate : 477 Kbps
Nominal bit rate : 480 Kbps
Channel(s) : 6 channels
Channel positions : Front: L C R, Rear: L R, LFE
Sampling rate : 48.0 KHz
Resolution : 16 bits
Stream size : 278 MiB (36%)

Plot:
Sarah Tyler returns to her troubled family home in the isolated countryside, for a much put-off visit. As a storm rages outside, Sarah, her family and friends shore up for the night, cut off from the outside world. But something comes out of the driving rain and darkness. Something that holds a dark secret so devastating that, in one night, it could wipe out the entire family.

screens
 
http://img442.imageshack.us/img442/7870/vlcsnap2010102510h36m32.jpg 
http://img214.imageshack.us/img214/1792/13hrs2010dvdriph264feel.jpg 
http://img819.imageshack.us/img819/1792/13hrs2010dvdriph264feel.jpg 
http://img208.imageshack.us/img208/1792/13hrs2010dvdriph264feel.jpg 
http://img200.imageshack.us/img200/1792/13hrs2010dvdriph264feel.jpg
